G04*
G04 #@! TF.GenerationSoftware,Altium Limited,Altium Designer,25.5.2 (35)*
G04*
G04 Layer_Color=16711935*
%FSLAX44Y44*%
%MOMM*%
G71*
G04*
G04 #@! TF.SameCoordinates,CAC4E44D-9084-4A80-8A07-002337BCF63F*
G04*
G04*
G04 #@! TF.FilePolarity,Positive*
G04*
G01*
G75*
%ADD10C,0.0010*%
D10*
X500000Y0D02*
G03*
X470000Y30000I-30000J0D01*
G01*
X130000D02*
G03*
X100000Y0I0J-30000D01*
G01*
X-30000Y290000D02*
G03*
X-40000Y280000I0J-10000D01*
G01*
X-40000Y200000D02*
G03*
X-30000Y190000I10000J0D01*
G01*
X-40000Y1120000D02*
G03*
X-30000Y1110000I10000J0D01*
G01*
X-30000Y1210000D02*
G03*
X-40000Y1200000I0J-10000D01*
G01*
X-0Y180000D02*
G03*
X-10000Y190000I-10000J0D01*
G01*
X-10000Y290000D02*
G03*
X0Y300000I0J10000D01*
G01*
X-0Y1100000D02*
G03*
X-10000Y1110000I-10000J0D01*
G01*
X-10000Y1210000D02*
G03*
X0Y1220000I0J10000D01*
G01*
X130000Y30000D02*
X470000D01*
X500000Y0D02*
X600000D01*
X0D02*
X100000D01*
X0Y1250000D02*
X600000D01*
X-30000Y290000D02*
X-10000Y290000D01*
X-40000Y280000D02*
X-40000Y200000D01*
X-30000Y190000D02*
X-10000D01*
X-30000Y1110000D02*
X-10000D01*
X-40000Y1200000D02*
X-40000Y1120000D01*
X-30000Y1210000D02*
X-10000Y1210000D01*
X-10000Y1110000D02*
X-10000Y1110000D01*
X-0Y150000D02*
Y180000D01*
Y300000D02*
Y1100000D01*
X-0Y1250000D02*
X0Y1220000D01*
X0Y0D02*
Y150000D01*
X600000Y1250000D02*
X600000Y0D01*
M02*
