G04*
G04 #@! TF.GenerationSoftware,Altium Limited,Altium Designer,25.5.2 (35)*
G04*
G04 Layer_Color=16711935*
%FSLAX44Y44*%
%MOMM*%
G71*
G04*
G04 #@! TF.SameCoordinates,CAC4E44D-9084-4A80-8A07-002337BCF63F*
G04*
G04*
G04 #@! TF.FilePolarity,Negative*
G04*
G01*
G75*
G36*
X-10000Y190000D02*
X-30000Y190000D01*
X-30985Y190000D01*
X-32917Y190384D01*
X-34737Y191138D01*
X-36375Y192232D01*
X-37768Y193625D01*
X-38862Y195263D01*
X-39616Y197083D01*
X-40000Y199015D01*
X-40000Y200000D01*
X-40000Y200000D01*
X-40000Y280000D01*
X-40000Y280985D01*
X-39616Y282917D01*
X-38862Y284737D01*
X-37768Y286375D01*
X-36375Y287768D01*
X-34737Y288862D01*
X-32917Y289616D01*
X-30985Y290000D01*
X-30000Y290000D01*
Y290000D01*
X-10000D01*
X-10000Y190000D01*
D02*
G37*
G36*
X-10000Y1110000D02*
X-30000D01*
X-30985Y1110000D01*
X-32917Y1110384D01*
X-34737Y1111138D01*
X-36375Y1112233D01*
X-37768Y1113625D01*
X-38862Y1115263D01*
X-39616Y1117083D01*
X-40000Y1119015D01*
Y1120000D01*
Y1120000D01*
Y1200000D01*
X-40000Y1200985D01*
X-39616Y1202917D01*
X-38862Y1204737D01*
X-37768Y1206375D01*
X-36375Y1207767D01*
X-34737Y1208862D01*
X-32917Y1209616D01*
X-30985Y1210000D01*
X-30000Y1210000D01*
Y1210000D01*
X-10000Y1210000D01*
X-10000Y1110000D01*
D02*
G37*
M02*
