G04*
G04 #@! TF.GenerationSoftware,Altium Limited,Altium Designer,25.5.2 (35)*
G04*
G04 Layer_Physical_Order=1*
G04 Layer_Color=255*
%FSLAX44Y44*%
%MOMM*%
G71*
G04*
G04 #@! TF.SameCoordinates,C5252B2F-79BF-4130-8680-8E5645FEB656*
G04*
G04*
G04 #@! TF.FilePolarity,Positive*
G04*
G01*
G75*
G36*
X947530Y5098D02*
X5098D01*
Y308988D01*
X24818Y328708D01*
X24888Y328814D01*
X24990Y328890D01*
X25649Y329617D01*
X25844Y329941D01*
X26111Y330208D01*
X27200Y331838D01*
X27392Y332302D01*
X27671Y332719D01*
X28421Y334531D01*
X28519Y335023D01*
X28711Y335487D01*
X29094Y337410D01*
Y337912D01*
X29192Y338404D01*
Y340364D01*
X29094Y340857D01*
Y341359D01*
X28711Y343282D01*
X28519Y343745D01*
X28421Y344238D01*
X27671Y346049D01*
X27392Y346467D01*
X27200Y346931D01*
X26111Y348560D01*
X25844Y348828D01*
X25650Y349151D01*
X24991Y349879D01*
X24889Y349954D01*
X24818Y350060D01*
X10676Y364202D01*
X10334Y364543D01*
X9798Y365346D01*
X9428Y366239D01*
X9240Y367186D01*
X9240Y368151D01*
X9428Y369098D01*
X9798Y369991D01*
X10334Y370794D01*
X10676Y371135D01*
X10676Y371135D01*
X67244Y427703D01*
X67586Y428045D01*
X68389Y428581D01*
X69281Y428951D01*
X70228Y429139D01*
X71193D01*
X72140Y428951D01*
X73033Y428581D01*
X73836Y428045D01*
X74177Y427703D01*
D01*
X88319Y413561D01*
X88425Y413491D01*
X88500Y413389D01*
X89228Y412730D01*
X89552Y412536D01*
X89819Y412268D01*
X91449Y411179D01*
X91913Y410987D01*
X92330Y410708D01*
X94141Y409958D01*
X94634Y409860D01*
X95098Y409668D01*
X97020Y409285D01*
X97522D01*
X98015Y409187D01*
X99975D01*
X100468Y409285D01*
X100970D01*
X102892Y409668D01*
X103356Y409860D01*
X103849Y409958D01*
X105660Y410708D01*
X106077Y410987D01*
X106541Y411179D01*
X108171Y412268D01*
X108438Y412535D01*
X108762Y412730D01*
X109489Y413389D01*
X109565Y413491D01*
X109671Y413561D01*
X675356Y979247D01*
X675427Y979352D01*
X675529Y979428D01*
X676188Y980155D01*
X676382Y980479D01*
X676649Y980746D01*
X677738Y982376D01*
X677930Y982840D01*
X678209Y983258D01*
X678960Y985069D01*
X679057Y985561D01*
X679250Y986025D01*
X679632Y987948D01*
Y988450D01*
X679730Y988942D01*
Y990903D01*
X679632Y991395D01*
Y991897D01*
X679250Y993820D01*
X679057Y994284D01*
X678960Y994776D01*
X678209Y996587D01*
X677930Y997005D01*
X677738Y997469D01*
X676649Y999099D01*
X676382Y999366D01*
X676188Y999690D01*
X675529Y1000417D01*
X675427Y1000493D01*
X675356Y1000598D01*
X661214Y1014740D01*
X660873Y1015082D01*
X660336Y1015885D01*
X659967Y1016777D01*
X659778Y1017724D01*
X659778Y1018690D01*
X659967Y1019637D01*
X660336Y1020529D01*
X660873Y1021332D01*
X661214Y1021673D01*
X661214Y1021673D01*
X717782Y1078242D01*
X718124Y1078583D01*
X718927Y1079119D01*
X719819Y1079489D01*
X720766Y1079678D01*
X721732D01*
X722679Y1079489D01*
X723571Y1079119D01*
X724374Y1078583D01*
X724715Y1078242D01*
D01*
X738857Y1064100D01*
X738963Y1064029D01*
X739039Y1063927D01*
X739766Y1063268D01*
X740090Y1063074D01*
X740357Y1062807D01*
X741987Y1061718D01*
X742451Y1061525D01*
X742868Y1061246D01*
X744679Y1060496D01*
X745172Y1060398D01*
X745636Y1060206D01*
X747559Y1059824D01*
X748061D01*
X748553Y1059726D01*
X750513D01*
X751006Y1059824D01*
X751508D01*
X753431Y1060206D01*
X753894Y1060398D01*
X754387Y1060496D01*
X756198Y1061246D01*
X756616Y1061525D01*
X757079Y1061717D01*
X758709Y1062806D01*
X758977Y1063074D01*
X759301Y1063268D01*
X760028Y1063927D01*
X760103Y1064029D01*
X760209Y1064100D01*
X779929Y1083820D01*
X947530D01*
Y5098D01*
D02*
G37*
%LPC*%
G36*
X904598Y1064018D02*
X900658D01*
X900165Y1063920D01*
X899663D01*
X895799Y1063151D01*
X895336Y1062959D01*
X894843Y1062861D01*
X891203Y1061353D01*
X890786Y1061074D01*
X890322Y1060882D01*
X887046Y1058693D01*
X886691Y1058338D01*
X886274Y1058059D01*
X883488Y1055274D01*
X883209Y1054856D01*
X882854Y1054501D01*
X880665Y1051226D01*
X880473Y1050762D01*
X880194Y1050344D01*
X878687Y1046704D01*
X878589Y1046212D01*
X878396Y1045748D01*
X877628Y1041884D01*
Y1041382D01*
X877530Y1040890D01*
Y1038920D01*
Y1036950D01*
X877628Y1036457D01*
Y1035955D01*
X878396Y1032091D01*
X878589Y1031627D01*
X878687Y1031135D01*
X880194Y1027495D01*
X880473Y1027078D01*
X880665Y1026614D01*
X882854Y1023338D01*
X883209Y1022983D01*
X883488Y1022566D01*
X886274Y1019780D01*
X886691Y1019501D01*
X887046Y1019146D01*
X890322Y1016957D01*
X890786Y1016765D01*
X891203Y1016486D01*
X894843Y1014978D01*
X895336Y1014880D01*
X895800Y1014688D01*
X899663Y1013920D01*
X900166D01*
X900658Y1013822D01*
X904598D01*
X905090Y1013920D01*
X905592D01*
X909456Y1014688D01*
X909920Y1014880D01*
X910413Y1014978D01*
X914052Y1016486D01*
X914470Y1016765D01*
X914934Y1016957D01*
X918209Y1019146D01*
X918564Y1019501D01*
X918982Y1019780D01*
X921768Y1022566D01*
X922047Y1022983D01*
X922402Y1023338D01*
X924591Y1026614D01*
X924783Y1027078D01*
X925061Y1027495D01*
X926569Y1031135D01*
X926667Y1031628D01*
X926859Y1032091D01*
X927628Y1035955D01*
Y1036457D01*
X927726Y1036950D01*
Y1038920D01*
Y1040890D01*
X927628Y1041382D01*
Y1041884D01*
X926859Y1045748D01*
X926667Y1046212D01*
X926569Y1046704D01*
X925061Y1050344D01*
X924783Y1050762D01*
X924591Y1051226D01*
X922402Y1054501D01*
X922047Y1054856D01*
X921768Y1055274D01*
X918982Y1058059D01*
X918565Y1058338D01*
X918209Y1058693D01*
X914934Y1060882D01*
X914470Y1061074D01*
X914052Y1061353D01*
X910413Y1062861D01*
X909920Y1062959D01*
X909456Y1063151D01*
X905592Y1063920D01*
X905090D01*
X904598Y1064018D01*
D02*
G37*
G36*
X904600Y75098D02*
X900660D01*
X900168Y75000D01*
X899666D01*
X895802Y74231D01*
X895338Y74039D01*
X894845Y73941D01*
X891206Y72434D01*
X890788Y72155D01*
X890324Y71963D01*
X887048Y69774D01*
X886693Y69419D01*
X886276Y69140D01*
X883490Y66354D01*
X883211Y65937D01*
X882856Y65581D01*
X880667Y62306D01*
X880475Y61842D01*
X880196Y61424D01*
X878689Y57785D01*
X878591Y57292D01*
X878399Y56828D01*
X877630Y52964D01*
Y52462D01*
X877532Y51970D01*
Y50000D01*
Y48030D01*
X877630Y47538D01*
Y47036D01*
X878399Y43172D01*
X878591Y42708D01*
X878689Y42215D01*
X880196Y38575D01*
X880475Y38158D01*
X880667Y37694D01*
X882856Y34418D01*
X883211Y34063D01*
X883490Y33646D01*
X886276Y30860D01*
X886693Y30581D01*
X887048Y30226D01*
X890324Y28037D01*
X890788Y27845D01*
X891206Y27566D01*
X894845Y26059D01*
X895338Y25961D01*
X895802Y25769D01*
X899666Y25000D01*
X900168D01*
X900660Y24902D01*
X904600D01*
X905092Y25000D01*
X905594D01*
X909458Y25769D01*
X909922Y25961D01*
X910415Y26059D01*
X914054Y27566D01*
X914472Y27845D01*
X914936Y28037D01*
X918212Y30226D01*
X918567Y30581D01*
X918984Y30860D01*
X921770Y33646D01*
X922049Y34063D01*
X922404Y34418D01*
X924593Y37694D01*
X924785Y38158D01*
X925064Y38575D01*
X926571Y42215D01*
X926669Y42708D01*
X926861Y43172D01*
X927630Y47036D01*
Y47538D01*
X927728Y48030D01*
Y50000D01*
Y51970D01*
X927630Y52462D01*
Y52964D01*
X926861Y56828D01*
X926669Y57292D01*
X926571Y57785D01*
X925064Y61424D01*
X924785Y61842D01*
X924593Y62306D01*
X922404Y65581D01*
X922049Y65936D01*
X921770Y66354D01*
X918984Y69140D01*
X918567Y69419D01*
X918212Y69774D01*
X914936Y71963D01*
X914472Y72155D01*
X914054Y72434D01*
X910415Y73941D01*
X909922Y74039D01*
X909458Y74231D01*
X905594Y75000D01*
X905092D01*
X904600Y75098D01*
D02*
G37*
G36*
X51970D02*
X48030D01*
X47538Y75000D01*
X47036D01*
X43172Y74231D01*
X42708Y74039D01*
X42215Y73941D01*
X38575Y72434D01*
X38158Y72155D01*
X37694Y71963D01*
X34418Y69774D01*
X34063Y69419D01*
X33646Y69140D01*
X30860Y66354D01*
X30581Y65937D01*
X30226Y65581D01*
X28037Y62306D01*
X27845Y61842D01*
X27566Y61424D01*
X26059Y57785D01*
X25961Y57292D01*
X25769Y56828D01*
X25000Y52964D01*
Y52462D01*
X24902Y51970D01*
Y50000D01*
Y48030D01*
X25000Y47538D01*
Y47036D01*
X25769Y43172D01*
X25961Y42708D01*
X26059Y42215D01*
X27566Y38575D01*
X27845Y38158D01*
X28037Y37694D01*
X30226Y34418D01*
X30581Y34063D01*
X30860Y33646D01*
X33646Y30860D01*
X34063Y30581D01*
X34418Y30226D01*
X37694Y28037D01*
X38158Y27845D01*
X38575Y27566D01*
X42215Y26059D01*
X42708Y25961D01*
X43172Y25769D01*
X47036Y25000D01*
X47538D01*
X48030Y24902D01*
X51970D01*
X52462Y25000D01*
X52964D01*
X56828Y25769D01*
X57292Y25961D01*
X57785Y26059D01*
X61424Y27566D01*
X61842Y27845D01*
X62306Y28037D01*
X65581Y30226D01*
X65936Y30581D01*
X66354Y30860D01*
X69140Y33646D01*
X69419Y34063D01*
X69774Y34418D01*
X71963Y37694D01*
X72155Y38158D01*
X72434Y38575D01*
X73941Y42215D01*
X74039Y42708D01*
X74231Y43172D01*
X75000Y47036D01*
Y47538D01*
X75098Y48030D01*
Y50000D01*
Y51970D01*
X75000Y52462D01*
Y52964D01*
X74231Y56828D01*
X74039Y57292D01*
X73941Y57785D01*
X72434Y61424D01*
X72155Y61842D01*
X71963Y62306D01*
X69774Y65581D01*
X69419Y65936D01*
X69140Y66354D01*
X66354Y69140D01*
X65937Y69419D01*
X65581Y69774D01*
X62306Y71963D01*
X61842Y72155D01*
X61424Y72434D01*
X57785Y73941D01*
X57292Y74039D01*
X56828Y74231D01*
X52964Y75000D01*
X52462D01*
X51970Y75098D01*
D02*
G37*
%LPD*%
M02*
