G04*
G04 #@! TF.GenerationSoftware,Altium Limited,Altium Designer,25.5.2 (35)*
G04*
G04 Layer_Color=8388736*
%FSLAX44Y44*%
%MOMM*%
G71*
G04*
G04 #@! TF.SameCoordinates,C5252B2F-79BF-4130-8680-8E5645FEB656*
G04*
G04*
G04 #@! TF.FilePolarity,Negative*
G04*
G01*
G75*
%ADD10C,0.1000*%
%ADD11C,0.0010*%
G36*
X21213Y346455D02*
X7071Y360597D01*
X6375Y361294D01*
X5280Y362932D01*
X4526Y364752D01*
X4142Y366684D01*
X4142Y368653D01*
X4526Y370585D01*
X5280Y372405D01*
X6375Y374043D01*
X7071Y374740D01*
Y374740D01*
X63640Y431308D01*
X64336Y432005D01*
X65974Y433099D01*
X67794Y433853D01*
X69726Y434237D01*
X71696Y434237D01*
X73628Y433853D01*
X75447Y433099D01*
X77085Y432005D01*
X77782Y431308D01*
X77782Y431308D01*
X91924Y417166D01*
X21213Y346455D01*
D02*
G37*
G36*
X671751Y996994D02*
X657609Y1011136D01*
X656913Y1011832D01*
X655818Y1013470D01*
X655065Y1015290D01*
X654680Y1017222D01*
X654680Y1019192D01*
X655065Y1021124D01*
X655818Y1022943D01*
X656913Y1024581D01*
X657609Y1025278D01*
X657609Y1025278D01*
X714178Y1081846D01*
X714874Y1082543D01*
X716512Y1083637D01*
X718332Y1084391D01*
X720264Y1084775D01*
X722234D01*
X724166Y1084391D01*
X725986Y1083637D01*
X727624Y1082543D01*
X728320Y1081846D01*
X728320Y1081846D01*
X742462Y1067704D01*
X671751Y996994D01*
D02*
G37*
D10*
X7071Y374740D02*
G03*
X7071Y360597I7071J-7071D01*
G01*
X77782Y431308D02*
G03*
X63640Y431308I-7071J-7071D01*
G01*
X7071Y360597D02*
X21213Y346455D01*
X7071Y374740D02*
X63640Y431308D01*
X77782Y431308D02*
X91924Y417166D01*
X21213Y346455D02*
X91924Y417166D01*
D11*
X21213Y346455D02*
X21213D01*
M02*
